<?xml version="1.0" encoding="utf-8"?>
<!-- Generator: Adobe Illustrator 25.2.1, SVG Export Plug-In . SVG Version: 6.00 Build 0)  -->
<svg version="1.1" id="Layer_1" xmlns="http://www.w3.org/2000/svg" xmlns:xlink="http://www.w3.org/1999/xlink" x="0px" y="0px"
	 viewBox="0 0 864 864" style="enable-background:new 0 0 864 864;" xml:space="preserve">
<style type="text/css">
	.st0{fill:#FDBF37;stroke:#FFFFFF;stroke-width:5;stroke-miterlimit:10;}
	.st1{fill:#D91F33;stroke:#FFFFFF;stroke-width:5;stroke-miterlimit:10;}
	.st2{fill:#010101;stroke:#FFFFFF;stroke-width:5;stroke-miterlimit:10;}
</style>
<ellipse transform="matrix(0.9366 -0.3504 0.3504 0.9366 -4.9759 93.3892)" class="st0" cx="255.59" cy="60.45" rx="105.24" ry="29.11"/>
<path class="st0" d="M539.76,28.94C506.17,17.75,472.59,11.03,439,6.55l0,0l0,0l0,0c6.72,2.24,13.44,6.72,17.91,13.44
	c8.96,31.35-67.18,85.09-170.18,125.4c-20.15,6.72-42.54,13.44-60.46,17.91l-24.63,91.81c38.07-8.96,76.13-22.39,114.2-35.83
	C459.15,165.54,542,102.84,557.68,55.81c2.24-4.48,2.24-8.96,0-13.44C555.44,40.14,550.96,35.66,539.76,28.94z"/>
<path class="st1" d="M779.36,243.91L779.36,243.91L779.36,243.91c4.48,62.7-152.27,170.18-360.51,248.55
	c-20.15,6.72-40.31,13.44-60.46,20.15l-31.35,114.2c40.31-11.2,82.85-24.63,127.63-40.31c170.18-62.7,286.62-138.83,347.08-208.25
	c11.2-11.2,15.67-26.87,11.2-42.54C810.29,317.47,791.76,256.32,779.36,243.91z"/>
<path class="st1" d="M709.94,143.14c-20.15-22.39-44.78-42.54-69.42-60.46l0,0l0,0c2.24,2.24,2.24,4.48,2.24,6.72
	c17.91,49.26-114.2,145.55-295.57,212.72c-85.09,33.59-176.9,55.98-268.7,62.7l-38.07,103c78.37,4.48,194.81-15.67,340.36-69.42
	c152.27-58.22,257.51-120.92,311.25-176.9c8.96-11.2,17.91-22.39,22.39-35.83C721.14,172.25,718.9,156.58,709.94,143.14z"/>
<path class="st2" d="M821.9,454.39L821.9,454.39c-29.11,62.7-163.46,150.03-338.12,214.96c-76.13,29.11-152.27,49.26-232.88,62.7
	l-26.87,80.61c98.52-8.96,194.81-31.35,286.62-67.18c78.37-29.11,221.68-96.29,273.18-170.18
	C808.47,539.48,821.9,496.94,821.9,454.39C824.14,454.39,824.14,454.39,821.9,454.39z"/>
<path class="st2" d="M750.25,671.59L750.25,671.59c-67.18,53.74-143.31,94.05-223.92,123.16c-20.15,6.72-40.31,15.67-60.46,20.15
	l-13.44,42.54C573.35,841.77,683.07,772.36,750.25,671.59L750.25,671.59z"/>
</svg>
